<?xml version="1.0" encoding="UTF-8" standalone="no"?>
<svg width="512px" height="512px" viewBox="0 0 512 512" version="1.1" xmlns="http://www.w3.org/2000/svg" xmlns:xlink="http://www.w3.org/1999/xlink">
    <!-- Generator: Sketch 3.8.2 (29753) - http://www.bohemiancoding.com/sketch -->
    <title>icon_nobg</title>
    <desc>Created with Sketch.</desc>
    <defs>
        <filter x="-50%" y="-50%" width="200%" height="200%" filterUnits="objectBoundingBox" id="filter-1">
            <feOffset dx="4" dy="2" in="SourceAlpha" result="shadowOffsetOuter1"></feOffset>
            <feGaussianBlur stdDeviation="2" in="shadowOffsetOuter1" result="shadowBlurOuter1"></feGaussianBlur>
            <feColorMatrix values="0 0 0 0 0   0 0 0 0 0   0 0 0 0 0  0 0 0 0.5 0" type="matrix" in="shadowBlurOuter1" result="shadowMatrixOuter1"></feColorMatrix>
            <feMerge>
                <feMergeNode in="shadowMatrixOuter1"></feMergeNode>
                <feMergeNode in="SourceGraphic"></feMergeNode>
            </feMerge>
        </filter>
        <text id="text-2" font-family="Phenomena-Bold, Phenomena" font-size="120" font-weight="bold">
            <tspan x="46" y="413" fill="#4990E2">find</tspan>
            <tspan x="200.92" y="413" fill="#000000">my</tspan>
            <tspan x="323.92" y="413" fill="#4990E2">bus</tspan>
        </text>
        <filter x="-50%" y="-50%" width="200%" height="200%" filterUnits="objectBoundingBox" id="filter-3">
            <feOffset dx="4" dy="2" in="SourceAlpha" result="shadowOffsetOuter1"></feOffset>
            <feGaussianBlur stdDeviation="2" in="shadowOffsetOuter1" result="shadowBlurOuter1"></feGaussianBlur>
            <feColorMatrix values="0 0 0 0 0   0 0 0 0 0   0 0 0 0 0  0 0 0 0.5 0" type="matrix" in="shadowBlurOuter1"></feColorMatrix>
        </filter>
    </defs>
    <g id="Page-1" stroke="none" stroke-width="1" fill="none" fill-rule="evenodd">
        <g id="icon_nobg">
            <g id="bus" filter="url(#filter-1)" transform="translate(33.000000, 52.000000)">
                <g id="Capa_1">
                    <g id="Group">
                        <path d="M341.004,32.97 L118.026,32.97 C81.174,32.97 51.193,62.951 51.193,99.803 C51.193,103.946 54.551,107.303 58.693,107.303 L341.004,107.303 C353.893,107.303 364.379,96.817 364.379,83.928 L364.379,56.345 C364.379,43.457 353.893,32.97 341.004,32.97 L341.004,32.97 Z M192.445,47.97 L236.223,47.97 L236.223,92.303 L192.445,92.303 L192.445,47.97 L192.445,47.97 Z M177.445,92.303 L133.667,92.303 L133.667,47.97 L177.445,47.97 L177.445,92.303 L177.445,92.303 Z M251.223,47.97 L295,47.97 L295,92.303 L251.223,92.303 L251.223,47.97 L251.223,47.97 L251.223,47.97 Z M118.026,47.97 L118.667,47.97 L118.667,92.303 L66.734,92.303 C70.379,67.264 91.992,47.97 118.026,47.97 L118.026,47.97 Z M349.379,83.928 C349.379,88.546 345.622,92.303 341.004,92.303 L310,92.303 L310,47.97 L341.004,47.97 C345.622,47.97 349.379,51.727 349.379,56.345 L349.379,83.928 L349.379,83.928 Z" id="Shape" fill="#4990E2"></path>
                        <path d="M102.616,174.413 C90.453,174.413 80.558,184.308 80.558,196.471 C80.558,208.633 90.453,218.528 102.616,218.528 C114.778,218.528 124.673,208.633 124.673,196.471 C124.673,184.307 114.778,174.413 102.616,174.413 L102.616,174.413 Z M102.616,203.527 C98.724,203.527 95.558,200.361 95.558,196.47 C95.558,192.578 98.724,189.412 102.616,189.412 C106.507,189.412 109.673,192.578 109.673,196.47 C109.673,200.361 106.507,203.527 102.616,203.527 L102.616,203.527 Z" id="Shape" fill="#000000"></path>
                        <path d="M335.5,174.413 C323.338,174.413 313.443,184.308 313.443,196.471 C313.443,208.633 323.338,218.528 335.5,218.528 C347.663,218.528 357.558,208.633 357.558,196.471 C357.558,184.307 347.663,174.413 335.5,174.413 L335.5,174.413 Z M335.5,203.527 C331.609,203.527 328.443,200.361 328.443,196.47 C328.443,192.578 331.609,189.412 335.5,189.412 C339.392,189.412 342.558,192.578 342.558,196.47 C342.558,200.361 339.392,203.527 335.5,203.527 L335.5,203.527 Z" id="Shape" fill="#000000"></path>
                        <path d="M447,173.47 C447,169.358 443.69,166.023 439.59,165.975 L439.59,72.41 C439.59,32.5 407.121,0.03 367.21,0.03 L132.4,0.03 C64.313,0.03 8.92,55.424 8.92,123.51 L8.92,165.97 L7.5,165.97 C3.358,165.97 0,169.327 0,173.47 C0,177.613 3.358,180.97 7.5,180.97 L8.92,180.97 L8.92,196.47 C8.92,200.613 12.278,203.97 16.42,203.97 L58.761,203.97 C62.338,224.947 80.636,240.97 102.616,240.97 C124.596,240.97 142.894,224.947 146.471,203.97 L291.644,203.97 C295.221,224.947 313.519,240.97 335.499,240.97 C357.479,240.97 375.777,224.947 379.354,203.97 L432.089,203.97 C436.231,203.97 439.589,200.613 439.589,196.47 L439.589,180.965 C443.69,180.917 447,177.582 447,173.47 L447,173.47 Z M424.59,108.97 L412.413,108.97 C401.708,108.97 393,100.261 393,89.557 L393,57.812 C393,52.385 397.415,47.97 402.842,47.97 L419.112,47.97 C422.62,55.39 424.591,63.672 424.591,72.409 L424.591,108.97 L424.59,108.97 L424.59,108.97 Z M102.616,225.97 C86.349,225.97 73.116,212.737 73.116,196.47 C73.116,180.203 86.349,166.97 102.616,166.97 C118.883,166.97 132.116,180.203 132.116,196.47 C132.116,212.737 118.883,225.97 102.616,225.97 L102.616,225.97 Z M335.5,225.97 C319.233,225.97 306,212.737 306,196.47 C306,180.203 319.233,166.97 335.5,166.97 C351.767,166.97 365,180.203 365,196.47 C365,212.737 351.767,225.97 335.5,225.97 L335.5,225.97 Z M379.355,188.97 C375.778,167.993 357.48,151.97 335.5,151.97 C313.52,151.97 295.222,167.993 291.645,188.97 L146.471,188.97 C142.894,167.993 124.596,151.97 102.616,151.97 C80.636,151.97 62.338,167.993 58.761,188.97 L23.92,188.97 L23.92,180.97 L42.5,180.97 C46.642,180.97 50,177.613 50,173.47 C50,169.327 46.642,165.97 42.5,165.97 L23.92,165.97 L23.92,123.51 C23.92,63.694 72.584,15.03 132.4,15.03 L367.21,15.03 C383.583,15.03 398.364,21.934 408.828,32.97 L402.841,32.97 C389.144,32.97 378,44.114 378,57.812 L378,89.557 C378,108.533 393.438,123.97 412.413,123.97 L424.59,123.97 L424.59,142.97 L417.5,142.97 C413.358,142.97 410,146.327 410,150.47 C410,154.613 413.358,157.97 417.5,157.97 L424.59,157.97 L424.59,165.97 L404.5,165.97 C400.358,165.97 397,169.327 397,173.47 C397,177.613 400.358,180.97 404.5,180.97 L424.59,180.97 L424.59,188.97 L379.355,188.97 L379.355,188.97 Z" id="Shape" fill="#4990E2"></path>
                    </g>
                </g>
            </g>
            <g id="findmybus" fill-opacity="1" fill="#4990E2">
                <use filter="url(#filter-3)" xlink:href="#text-2"></use>
                <use xlink:href="#text-2"></use>
            </g>
        </g>
    </g>
</svg>